<svg xmlns="http://www.w3.org/2000/svg" width="64" height="64" fill="#fff" stroke="#fff" stroke-width="0" aria-hidden="true" class="iconify iconify--emojione">
    <g stroke="none">
        <path fill="#2fa5ee" d="M53 0H11C9 0 7 2 7 4v56c0 2 2 4 4 4h42c2 0 4-2 4-4V4c0-2-2-4-4-4z"/>
        <path fill="#9200c7" d="M51 2H13c-3 0-4 2-4 4v28l46 24V6c0-2-1-4-4-4z"/>
        <circle cx="25" cy="19" r="13" fill="#fddd0d"/>
        <path fill="#2fa5ee" d="M55 58H9V34c24 0 46 10 46 24z"/>
    </g>
</svg>